<?xml version="1.0" encoding="utf-8"?>
<!-- Generator: Adobe Illustrator 15.1.0, SVG Export Plug-In . SVG Version: 6.00 Build 0)  -->
<!DOCTYPE svg PUBLIC "-//W3C//DTD SVG 1.1//EN" "http://www.w3.org/Graphics/SVG/1.1/DTD/svg11.dtd">
<svg version="1.1" id="adf" xmlns="http://www.w3.org/2000/svg" xmlns:xlink="http://www.w3.org/1999/xlink" x="0px" y="0px"
	 width="416.18px" height="202.105px" viewBox="0 0 416.18 202.105" enable-background="new 0 0 416.18 202.105"
	 xml:space="preserve">
<polygon id="f" points="385.633,0 381.659,0 377.686,0 373.711,0 369.737,0 365.764,0 361.789,0 357.815,0 353.842,0 353.842,5.318 
	353.842,10.637 353.842,15.956 353.842,21.274 353.842,26.593 353.842,31.911 353.842,37.23 353.842,42.549 353.842,47.867 
	353.842,53.186 353.842,58.505 353.842,63.823 353.842,69.141 353.842,74.46 353.842,79.779 353.842,85.097 353.842,99.723 
	353.842,114.349 353.842,128.975 353.842,143.601 353.842,158.227 353.842,172.853 353.842,187.479 353.842,202.105 
	357.815,202.105 361.789,202.105 365.764,202.105 369.737,202.105 373.711,202.105 377.686,202.105 381.659,202.105 
	385.633,202.105 385.633,187.479 385.633,172.853 385.633,158.227 385.633,143.601 385.633,128.975 385.633,114.349 385.633,99.723 
	385.633,85.097 387.348,85.097 389.062,85.097 390.775,85.097 392.49,85.097 394.205,85.097 395.919,85.097 397.633,85.097 
	399.348,85.097 399.348,79.779 399.348,74.46 399.348,69.141 399.348,63.823 399.348,58.505 399.348,53.186 399.348,47.867 
	399.348,42.549 401.451,42.549 403.556,42.549 405.66,42.549 407.764,42.549 409.867,42.549 411.972,42.549 414.076,42.549 
	416.18,42.549 416.18,37.23 416.18,31.911 416.18,26.593 416.18,21.274 416.18,15.956 416.18,10.637 416.18,5.318 416.18,0 
	412.361,0 408.543,0 404.725,0 400.906,0 397.088,0 393.27,0 389.451,0 "/>
<path id="d" d="M249.178,100.607c0-5.139-0.329-10.205-0.969-15.183c-0.639-4.977-1.589-9.865-2.83-14.646
	c-1.241-4.781-2.774-9.456-4.581-14.006c-1.806-4.55-3.886-8.977-6.22-13.262s-4.922-8.428-7.747-12.413
	c-2.824-3.984-5.884-7.81-9.162-11.458c-3.277-3.649-6.771-7.122-10.465-10.401C203.511,5.96,199.619,2.874,195.548,0v25.152v25.152
	v25.151v25.152v25.152v25.151v25.152v25.151c4.071-2.874,7.963-5.96,11.656-9.239s7.188-6.752,10.465-10.4
	c3.278-3.649,6.338-7.475,9.162-11.459c2.825-3.984,5.413-8.127,7.747-12.412s4.414-8.711,6.22-13.262
	c1.807-4.55,3.34-9.225,4.581-14.006s2.191-9.669,2.83-14.646C248.849,110.812,249.178,105.746,249.178,100.607z"/>
<polygon id="a" points="45.425,0 39.747,25.263 34.068,50.526 28.391,75.789 22.712,101.052 17.034,126.316 11.356,151.579 
	5.678,176.842 0,202.105 5.678,202.105 11.356,202.105 17.034,202.105 22.712,202.105 28.391,202.105 34.068,202.105 
	39.747,202.105 45.425,202.105 51.104,202.105 56.782,202.105 62.46,202.105 68.139,202.105 73.817,202.105 79.495,202.105 
	85.174,202.105 90.852,202.105 85.174,176.842 79.495,151.579 73.817,126.316 68.139,101.052 62.46,75.789 56.782,50.526 
	51.104,25.263 "/>
</svg>
