<?xml version="1.0" encoding="utf-8"?>
<!-- Generator: Adobe Illustrator 15.1.0, SVG Export Plug-In . SVG Version: 6.00 Build 0)  -->
<!DOCTYPE svg PUBLIC "-//W3C//DTD SVG 1.1//EN" "http://www.w3.org/Graphics/SVG/1.1/DTD/svg11.dtd">
<svg version="1.1" id="Layer_1" xmlns="http://www.w3.org/2000/svg" xmlns:xlink="http://www.w3.org/1999/xlink" x="0px" y="0px"
	 width="102px" height="204px" viewBox="0 0 102 204" enable-background="new 0 0 102 204" xml:space="preserve">
<polygon id="a" fill="#010202" points="50.999,0.947 45.321,26.211 39.642,51.474 33.965,76.736 28.286,101.999 22.608,127.264 
	16.93,152.526 11.252,177.789 5.574,203.053 11.252,203.053 16.93,203.053 22.608,203.053 28.286,203.053 33.965,203.053 
	39.642,203.053 45.321,203.053 50.999,203.053 56.678,203.053 62.356,203.053 68.034,203.053 73.713,203.053 79.391,203.053 
	85.069,203.053 90.748,203.053 96.426,203.053 90.748,177.789 85.069,152.526 79.391,127.264 73.713,101.999 68.034,76.736 
	62.356,51.474 56.678,26.211 "/>
</svg>
