<?xml version="1.0" encoding="utf-8"?>
<!-- Generator: Adobe Illustrator 15.1.0, SVG Export Plug-In . SVG Version: 6.00 Build 0)  -->
<!DOCTYPE svg PUBLIC "-//W3C//DTD SVG 1.1//EN" "http://www.w3.org/Graphics/SVG/1.1/DTD/svg11.dtd">
<svg version="1.1" id="Layer_1" xmlns="http://www.w3.org/2000/svg" xmlns:xlink="http://www.w3.org/1999/xlink" x="0px" y="0px"
	 width="102px" height="204px" viewBox="0 0 102 204" enable-background="new 0 0 102 204" xml:space="preserve">
<path id="d" fill="#010202" d="M76.752,102.555c0-5.14-0.328-10.205-0.969-15.184c-0.639-4.977-1.589-9.864-2.83-14.646
	c-1.24-4.781-2.773-9.456-4.581-14.006c-1.806-4.55-3.886-8.978-6.22-13.263c-2.334-4.284-4.922-8.428-7.747-12.412
	c-2.824-3.984-5.884-7.811-9.162-11.458c-3.276-3.649-6.771-7.122-10.465-10.401c-3.693-3.278-7.585-6.364-11.656-9.238V27.1v25.152
	v25.15v25.152v25.151v25.151v25.152v25.15c4.071-2.874,7.963-5.96,11.656-9.238c3.692-3.279,7.188-6.752,10.465-10.4
	c3.278-3.649,6.338-7.475,9.162-11.459c2.825-3.984,5.413-8.127,7.747-12.412s4.414-8.711,6.22-13.262
	c1.808-4.55,3.341-9.226,4.581-14.006c1.241-4.781,2.191-9.669,2.83-14.646C76.424,112.76,76.752,107.693,76.752,102.555z"/>
</svg>
