<?xml version="1.0" encoding="utf-8"?>
<!DOCTYPE svg PUBLIC "-//W3C//DTD SVG 1.1//EN" "http://www.w3.org/Graphics/SVG/1.1/DTD/svg11.dtd">
<svg version="1.1" id="Layer_1" xmlns="http://www.w3.org/2000/svg" xmlns:xlink="http://www.w3.org/1999/xlink" x="0px" y="0px"
	 width="60px" height="60px" viewBox="0 0 240 240" enable-background="new 0 0 120 120">
<line fill="none" stroke="#010202" stroke-width="3" stroke-miterlimit="10" x1="-233.325" y1="276.98" x2="216.774" y2="-173.121"/>
<line fill="none" stroke="#010202" stroke-width="3" stroke-miterlimit="10" x1="368.872" y1="276.98" x2="818.971" y2="-173.121"/>
<line fill="none" stroke="#010202" stroke-width="3" stroke-miterlimit="10" x1="335.417" y1="276.98" x2="785.521" y2="-173.121"/>
<line fill="none" stroke="#010202" stroke-width="3" stroke-miterlimit="10" x1="301.961" y1="276.98" x2="752.065" y2="-173.121"/>
<line fill="none" stroke="#010202" stroke-width="3" stroke-miterlimit="10" x1="268.506" y1="276.983" x2="718.61" y2="-173.121"/>
<line fill="none" stroke="#010202" stroke-width="3" stroke-miterlimit="10" x1="235.056" y1="276.98" x2="685.154" y2="-173.121"/>
<line fill="none" stroke="#010202" stroke-width="3" stroke-miterlimit="10" x1="201.599" y1="276.98" x2="651.705" y2="-173.121"/>
<line fill="none" stroke="#010202" stroke-width="3" stroke-miterlimit="10" x1="168.14" y1="276.983" x2="618.247" y2="-173.121"/>
<line fill="none" stroke="#010202" stroke-width="3" stroke-miterlimit="10" x1="34.317" y1="276.98" x2="484.426" y2="-173.121"/>
<line fill="none" stroke="#010202" stroke-width="3" stroke-miterlimit="10" x1="-132.964" y1="276.98" x2="317.151" y2="-173.121"/>
<line fill="none" stroke="#010202" stroke-width="3" stroke-miterlimit="10" x1="-66.048" y1="276.98" x2="384.053" y2="-173.121"/>
<line fill="none" stroke="#010202" stroke-width="3" stroke-miterlimit="10" x1="-166.417" y1="276.98" x2="283.681" y2="-173.121"/>
<line fill="none" stroke="#010202" stroke-width="3" stroke-miterlimit="10" x1="101.227" y1="276.983" x2="551.339" y2="-173.121"/>
<line fill="none" stroke="#010202" stroke-width="3" stroke-miterlimit="10" x1="-32.599" y1="276.98" x2="417.514" y2="-173.121"/>
<line fill="none" stroke="#010202" stroke-width="3" stroke-miterlimit="10" x1="67.775" y1="276.98" x2="517.878" y2="-173.121"/>
<line fill="none" stroke="#010202" stroke-width="3" stroke-miterlimit="10" x1="-266.777" y1="276.98" x2="183.326" y2="-173.121"/>
<line fill="none" stroke="#010202" stroke-width="3" stroke-miterlimit="10" x1="-634.779" y1="276.98" x2="-184.673" y2="-173.121"/>
<line fill="none" stroke="#010202" stroke-width="3" stroke-miterlimit="10" x1="134.688" y1="276.98" x2="584.789" y2="-173.121"/>
<line fill="none" stroke="#010202" stroke-width="3" stroke-miterlimit="10" x1="0.862" y1="276.98" x2="450.968" y2="-173.121"/>
<line fill="none" stroke="#010202" stroke-width="3" stroke-miterlimit="10" x1="-199.871" y1="276.98" x2="250.233" y2="-173.121"/>
<line fill="none" stroke="#010202" stroke-width="3" stroke-miterlimit="10" x1="-99.5" y1="276.983" x2="350.598" y2="-173.121"/>
<line fill="none" stroke="#010202" stroke-width="3" stroke-miterlimit="10" x1="-333.68" y1="276.98" x2="116.415" y2="-173.121"/>
<line fill="none" stroke="#010202" stroke-width="3" stroke-miterlimit="10" x1="-300.231" y1="276.98" x2="149.868" y2="-173.121"/>
<line fill="none" stroke="#010202" stroke-width="3" stroke-miterlimit="10" x1="-367.138" y1="276.983" x2="82.967" y2="-173.121"/>
<line fill="none" stroke="#010202" stroke-width="3" stroke-miterlimit="10" x1="-434.048" y1="276.98" x2="16.056" y2="-173.121"/>
<line fill="none" stroke="#010202" stroke-width="3" stroke-miterlimit="10" x1="-500.964" y1="276.98" x2="-50.857" y2="-173.121"/>
<line fill="none" stroke="#010202" stroke-width="3" stroke-miterlimit="10" x1="-567.869" y1="276.98" x2="-117.768" y2="-173.121"/>
<line fill="none" stroke="#010202" stroke-width="3" stroke-miterlimit="10" x1="-668.239" y1="276.98" x2="-218.13" y2="-173.121"/>
<line fill="none" stroke="#010202" stroke-width="3" stroke-miterlimit="10" x1="-400.593" y1="276.983" x2="49.511" y2="-173.121"/>
<line fill="none" stroke="#010202" stroke-width="3" stroke-miterlimit="10" x1="-467.506" y1="276.98" x2="-17.4" y2="-173.121"/>
<line fill="none" stroke="#010202" stroke-width="3" stroke-miterlimit="10" x1="-534.417" y1="276.98" x2="-84.315" y2="-173.121"/>
<line fill="none" stroke="#010202" stroke-width="3" stroke-miterlimit="10" x1="-601.322" y1="276.98" x2="-151.22" y2="-173.121"/>
</svg>
