<?xml version="1.0" encoding="utf-8"?>
<!-- Generator: Adobe Illustrator 15.1.0, SVG Export Plug-In . SVG Version: 6.00 Build 0)  -->
<!DOCTYPE svg PUBLIC "-//W3C//DTD SVG 1.1//EN" "http://www.w3.org/Graphics/SVG/1.1/DTD/svg11.dtd">
<svg version="1.1" id="Layer_1" xmlns="http://www.w3.org/2000/svg" xmlns:xlink="http://www.w3.org/1999/xlink" x="0px" y="0px"
	 width="102px" height="204px" viewBox="0 0 102 204" enable-background="new 0 0 102 204" xml:space="preserve">
<polygon id="f" fill="#010202" points="51.207,0.947 47.233,0.947 43.26,0.947 39.285,0.947 35.312,0.947 31.338,0.947 
	27.363,0.947 23.39,0.947 19.416,0.947 19.416,6.266 19.416,11.585 19.416,16.903 19.416,22.222 19.416,27.54 19.416,32.858 
	19.416,38.178 19.416,43.496 19.416,48.814 19.416,54.134 19.416,59.452 19.416,64.771 19.416,70.089 19.416,75.407 19.416,80.727 
	19.416,86.045 19.416,100.671 19.416,115.297 19.416,129.923 19.416,144.549 19.416,159.175 19.416,173.801 19.416,188.427 
	19.416,203.053 23.39,203.053 27.363,203.053 31.338,203.053 35.312,203.053 39.285,203.053 43.26,203.053 47.233,203.053 
	51.207,203.053 51.207,188.427 51.207,173.801 51.207,159.175 51.207,144.549 51.207,129.923 51.207,115.297 51.207,100.671 
	51.207,86.045 52.922,86.045 54.637,86.045 56.35,86.045 58.064,86.045 59.779,86.045 61.493,86.045 63.207,86.045 64.922,86.045 
	64.922,80.727 64.922,75.407 64.922,70.089 64.922,64.771 64.922,59.452 64.922,54.134 64.922,48.814 64.922,43.496 67.025,43.496 
	69.13,43.496 71.234,43.496 73.338,43.496 75.441,43.496 77.546,43.496 79.65,43.496 81.754,43.496 81.754,38.178 81.754,32.858 
	81.754,27.54 81.754,22.222 81.754,16.903 81.754,11.585 81.754,6.266 81.754,0.947 77.936,0.947 74.117,0.947 70.299,0.947 
	66.48,0.947 62.662,0.947 58.844,0.947 55.025,0.947 "/>
</svg>
