<?xml version="1.0" encoding="utf-8"?>
<!-- Generator: Adobe Illustrator 15.1.0, SVG Export Plug-In . SVG Version: 6.00 Build 0)  -->
<!DOCTYPE svg PUBLIC "-//W3C//DTD SVG 1.1//EN" "http://www.w3.org/Graphics/SVG/1.1/DTD/svg11.dtd">
<svg version="1.1" id="adf" xmlns="http://www.w3.org/2000/svg" xmlns:xlink="http://www.w3.org/1999/xlink" x="0px" y="0px"
	 width="600px" height="600px" viewBox="-91.91 -198.948 600 600" enable-background="new -91.91 -198.948 600 600"
	 xml:space="preserve">
<polyline id="f" fill="none" stroke="#70B62C" stroke-miterlimit="10" points="360.291,-52.709 360.291,-163.987 280.401,-163.987 
	197.261,-163.987 197.261,-52.709 197.261,58.569 197.261,364.58 280.401,364.58 280.401,58.569 316.269,58.569 316.269,-52.709 
	360.291,-52.709 "/>
<polyline id="a" fill="none" stroke="#70B62C" stroke-miterlimit="10" points="161.599,-163.987 131.899,-31.845 102.199,100.297 
	72.499,232.438 42.799,364.58 102.199,364.58 161.599,364.58 221,364.58 280.401,364.58 250.701,232.438 221,100.297 
	191.299,-31.845 161.599,-163.987 "/>
<polyline id="d" fill="none" stroke="#70B62C" stroke-miterlimit="10" points="197.261,-163.987 255.371,-112.394 299.787,-49.687 
	328.159,21.941 338.139,100.299 328.159,178.653 299.787,250.282 255.371,312.989 197.261,364.58 197.261,232.438 197.261,100.297 
	197.261,-31.845 197.261,-163.987 "/>
</svg>
